<svg id="full" xmlns="http://www.w3.org/2000/svg" viewBox="0 0 512 512">
  <defs>
    <style>
      .cls-1 {
        fill: none;
      }

      .cls-2 {
        fill: #1c1b1f;
      }
    </style>
  </defs>
  <g id="Layer_2" data-name="Layer 2">
    <g id="Layer_1-2" data-name="Layer 1">
      <g>
        <path class="cls-2" d="M405.3333,248.76a32.0009,32.0009,0,0,0-64,0,32.0009,32.0009,0,0,0-64,0c0,23.5187,51.7392,54.8609,62.1861,77.0812a1.9959,1.9959,0,0,0,3.6279,0C353.5942,303.6208,405.3333,272.2786,405.3333,248.76Z"/>
        <path class="cls-2" d="M480,216.9956A31.8828,31.8828,0,0,0,448,248.76c0,23.5187,51.7392,54.8609,62.186,77.0812A1.9835,1.9835,0,0,0,512,327.0043V248.76A31.8828,31.8828,0,0,0,480,216.9956Z"/>
        <path class="cls-2" d="M1.814,325.8411C12.2608,303.6208,64,272.2786,64,248.76a32.0009,32.0009,0,0,0-64,0v78.2444A1.9834,1.9834,0,0,0,1.814,325.8411Z"/>
        <path class="cls-2" d="M234.6667,248.76a32.0009,32.0009,0,0,0-64,0,32.0009,32.0009,0,0,0-64,0c0,23.5187,51.7391,54.8609,62.186,77.0812a1.9959,1.9959,0,0,0,3.6279,0C182.9275,303.6208,234.6667,272.2786,234.6667,248.76Z"/>
        <path class="cls-2" d="M458.6667,344.9956a31.8828,31.8828,0,0,0-32,31.7643,32.0009,32.0009,0,0,0-64,0c0,23.5187,51.7391,54.8609,62.186,77.0812a1.9959,1.9959,0,0,0,3.6279,0c10.4469-22.22,62.1861-53.5625,62.1861-77.0812A31.8828,31.8828,0,0,0,458.6667,344.9956Z"/>
        <path class="cls-2" d="M117.3333,344.9956a31.8828,31.8828,0,0,0-32,31.7643,32.0009,32.0009,0,0,0-64,0c0,23.5187,51.7392,54.8609,62.1861,77.0812a1.9959,1.9959,0,0,0,3.6279,0c10.4469-22.22,62.186-53.5625,62.186-77.0812A31.8828,31.8828,0,0,0,117.3333,344.9956Z"/>
        <path class="cls-2" d="M288,344.9956A31.8828,31.8828,0,0,0,256,376.76a32.0009,32.0009,0,0,0-64,0c0,23.5187,51.7392,54.8609,62.186,77.0812a1.996,1.996,0,0,0,3.628,0C268.2608,431.6208,320,400.2786,320,376.76A31.8828,31.8828,0,0,0,288,344.9956Z"/>
        <path class="cls-2" d="M424.8527,197.8411a1.9959,1.9959,0,0,0,3.6279,0c10.4469-22.22,62.1861-53.5625,62.1861-77.0812a32.0009,32.0009,0,0,0-64,0,32.0009,32.0009,0,0,0-64,0C362.6667,144.2786,414.4058,175.6208,424.8527,197.8411Z"/>
        <path class="cls-2" d="M83.5194,197.8411a1.9959,1.9959,0,0,0,3.6279,0c10.4469-22.22,62.186-53.5625,62.186-77.0812a32.0009,32.0009,0,0,0-64,0,32.0009,32.0009,0,0,0-64,0C21.3333,144.2786,73.0725,175.6208,83.5194,197.8411Z"/>
        <path class="cls-2" d="M254.186,197.8411a1.996,1.996,0,0,0,3.628,0C268.2608,175.6208,320,144.2786,320,120.76a32.0009,32.0009,0,0,0-64,0,32.0009,32.0009,0,0,0-64,0C192,144.2786,243.7392,175.6208,254.186,197.8411Z"/>
        <path class="cls-2" d="M339.5194,69.8411a1.9959,1.9959,0,0,0,3.6279,0C352.5543,49.8326,395.4349,22.4289,403.88,0H278.7867C287.2318,22.4289,330.1124,49.8326,339.5194,69.8411Z"/>
        <path class="cls-2" d="M510.186,69.8411A1.9835,1.9835,0,0,0,512,71.0043V0H449.4534C457.8984,22.4289,500.7791,49.8326,510.186,69.8411Z"/>
        <path class="cls-2" d="M1.814,69.8411C11.2209,49.8326,54.1016,22.4289,62.5466,0H0V71.0043A1.9834,1.9834,0,0,0,1.814,69.8411Z"/>
        <path class="cls-2" d="M168.8527,69.8411a1.9959,1.9959,0,0,0,3.6279,0C181.8876,49.8326,224.7682,22.4289,233.2133,0H108.12C116.5651,22.4289,159.4457,49.8326,168.8527,69.8411Z"/>
        <path class="cls-2" d="M373.3333,472.9956a31.8828,31.8828,0,0,0-32,31.7643,32.0009,32.0009,0,0,0-64,0,20.6146,20.6146,0,0,0,1.4534,7.24H403.88a20.6146,20.6146,0,0,0,1.4534-7.24A31.8828,31.8828,0,0,0,373.3333,472.9956Z"/>
        <path class="cls-2" d="M480,472.9956A31.8828,31.8828,0,0,0,448,504.76a20.6146,20.6146,0,0,0,1.4534,7.24H512v-7.24A31.8828,31.8828,0,0,0,480,472.9956Z"/>
        <path class="cls-2" d="M32,472.9956A31.8828,31.8828,0,0,0,0,504.76V512H62.5466A20.6146,20.6146,0,0,0,64,504.76,31.8828,31.8828,0,0,0,32,472.9956Z"/>
        <path class="cls-2" d="M202.6667,472.9956a31.8828,31.8828,0,0,0-32,31.7643,32.0009,32.0009,0,0,0-64,0A20.6146,20.6146,0,0,0,108.12,512H233.2133a20.6146,20.6146,0,0,0,1.4534-7.24A31.8828,31.8828,0,0,0,202.6667,472.9956Z"/>
      </g>
    </g>
  </g>
</svg>
